<svg width="24" height="30" viewBox="0 0 24 30" fill="none" xmlns="http://www.w3.org/2000/svg">
<path d="M1.00851 8.5C1.00851 8.5 2.40114 16.0237 5.00851 20C7.50813 23.812 13.5085 28 13.5085 28C13.5085 28 16.9765 29.2228 19.0085 28.5C21.0899 27.7596 23.0085 24.5 23.0085 24.5L17.5085 20L13.5085 22.5C13.5085 22.5 10.4595 19.3656 9.00851 17C7.45345 14.4648 6.00851 10 6.00851 10L10.5085 7.5L7.50851 1C7.50851 1 3.3937 1.59007 2.00851 3.5C0.839422 5.11198 1.00851 8.5 1.00851 8.5Z" fill="black" stroke="black"/>
</svg>
